<svg width="168" height="15" viewBox="0 0 168 15" fill="none" xmlns="http://www.w3.org/2000/svg">
<g id="Frame 95">
<g id="Green.Harvest">
<path d="M7.25042 15C2.89191 15 0 12.06 0 7.48C0 3 2.85059 0 7.14714 0C10.762 0 13.3028 2.06 13.6746 5.16H10.6794C10.3902 3.38 9.00622 2.38 7.14714 2.38C4.54442 2.38 2.99519 4.42 2.99519 7.48C2.99519 10.84 4.73033 12.62 7.25042 12.62C9.44001 12.62 10.8446 11.42 10.9892 9.62V9.42H6.96123V7.18H13.7779V9.02C13.6539 12.6 11.0512 15 7.25042 15Z" fill="#FBFBFB"/>
<path d="M15.5837 14.8V0.2H22.8341C26.5316 0.2 27.9982 1.94 27.9982 4.46C27.9982 6.72 26.3457 7.8 24.4247 8.06V8.12C25.664 8.42 26.2218 9.08 26.7382 10.38C27.3992 12.02 27.5025 13.98 28.3494 14.68V14.8H25.0444C24.342 14.12 24.1768 11.98 23.805 10.68C23.4331 9.34 22.6275 9.18 21.1196 9.18H18.4756V14.8H15.5837ZM18.4756 6.86H22.5243C24.2181 6.86 25.003 5.9 25.003 4.66C25.003 3.3 24.0322 2.52 22.5243 2.52H18.4756V6.86Z" fill="#FBFBFB"/>
<path d="M29.919 14.8V0.2H40.2265V2.52H32.8109V6H39.5036V8.32H32.8109V12.42H40.3298V14.8H29.919Z" fill="#FBFBFB"/>
<path d="M42.3378 14.8V0.2H52.6454V2.52H45.2298V6H51.9224V8.32H45.2298V12.42H52.7487V14.8H42.3378Z" fill="#FBFBFB"/>
<path d="M54.7567 14.8V0.2H58.2683L63.2672 8.26C64.7958 10.7 64.9817 11.5 64.9817 11.5H65.0437L65.0023 0.2H67.8943V14.8H64.362L59.1772 6.5C57.9998 4.62 57.69 3.48 57.69 3.48H57.6486V14.8H54.7567Z" fill="#FBFBFB"/>
<path d="M70.0698 14.8V11.84H73.0856V14.8H70.0698Z" fill="#FBFBFB"/>
<path d="M75.2575 14.8V0.2H78.1494V6.04H85.0693V0.2H87.9612V14.8H85.0693V8.36H78.1494V14.8H75.2575Z" fill="#FBFBFB"/>
<path d="M89.1972 14.8L94.981 0.2H98.1208L103.987 14.8H100.889L99.67 11.44H93.4111L92.1924 14.8H89.1972ZM94.2374 9.12H98.8438L97.5011 5.52C96.5716 2.86 96.5509 2.38 96.5509 2.38H96.5096C96.5096 2.38 96.5096 2.86 95.5801 5.52L94.2374 9.12Z" fill="#FBFBFB"/>
<path d="M105.219 14.8V0.2H112.469C116.167 0.2 117.634 1.94 117.634 4.46C117.634 6.72 115.981 7.8 114.06 8.06V8.12C115.299 8.42 115.857 9.08 116.374 10.38C117.035 12.02 117.138 13.98 117.985 14.68V14.8H114.68C113.977 14.12 113.812 11.98 113.44 10.68C113.068 9.34 112.263 9.18 110.755 9.18H108.111V14.8H105.219ZM108.111 6.86H112.16C113.853 6.86 114.638 5.9 114.638 4.66C114.638 3.3 113.668 2.52 112.16 2.52H108.111V6.86Z" fill="#FBFBFB"/>
<path d="M122.62 14.8L117.084 0.2H120.183C120.183 0.2 123.178 8.38 123.488 9.38C123.984 10.98 124.211 11.8 124.211 11.8H124.252C124.232 11.8 124.459 10.98 124.975 9.38C125.306 8.38 128.177 0.2 128.177 0.2H131.172L125.843 14.8H122.62Z" fill="#FBFBFB"/>
<path d="M132.356 14.8V0.2H142.664V2.52H135.248V6H141.941V8.32H135.248V12.42H142.767V14.8H132.356Z" fill="#FBFBFB"/>
<path d="M149.947 15C146.105 15 143.791 12.98 143.791 9.98H147.096C147.055 11.68 148.212 12.62 149.947 12.62C151.785 12.62 152.653 11.92 152.653 10.88C152.653 9.84 151.909 9.4 149.265 8.7C146.848 8.06 144.204 7.3 144.204 4.3C144.204 1.92 146.353 0 149.74 0C153.231 0 155.462 1.9 155.462 4.58H152.26C152.24 3.16 151.248 2.38 149.74 2.38C148.274 2.38 147.303 3.1 147.303 4.06C147.303 5.2 148.108 5.56 150.215 6.14C153.334 6.98 155.854 7.32 155.854 10.58C155.854 13.2 153.396 15 149.947 15Z" fill="#FBFBFB"/>
<path d="M160.564 14.8V2.58H155.999V0.2H168V2.58H163.456V14.8H160.564Z" fill="#FBFBFB"/>
</g>
</g>
</svg>
