<svg width="148" height="12" fill="none" xmlns="http://www.w3.org/2000/svg">
  <g fill="#FBFBFB">
    <path d="M6.301 12C2.513 12 0 9.648 0 5.984 0 2.4 2.477 0 6.211 0c3.142 0 5.35 1.648 5.673 4.128H9.28C9.03 2.704 7.827 1.904 6.21 1.904c-2.262 0-3.608 1.632-3.608 4.08 0 2.688 1.508 4.112 3.698 4.112 1.903 0 3.124-.96 3.25-2.4v-.16H6.05V5.744h5.924v1.472C11.866 10.08 9.604 12 6.3 12ZM13.543 11.84V.16h6.3c3.214 0 4.489 1.392 4.489 3.408 0 1.808-1.436 2.672-3.106 2.88v.048c1.077.24 1.562.768 2.01 1.808.575 1.312.665 2.88 1.401 3.44v.096h-2.872c-.61-.544-.754-2.256-1.077-3.296-.323-1.072-1.024-1.2-2.334-1.2h-2.298v4.496h-2.513Zm2.513-6.352h3.519c1.472 0 2.154-.768 2.154-1.76 0-1.088-.844-1.712-2.154-1.712h-3.519v3.472ZM26.001 11.84V.16h8.958v1.856h-6.445V4.8h5.817v1.856h-5.817v3.28h6.534v1.904h-9.047ZM36.794 11.84V.16h8.957v1.856h-6.444V4.8h5.816v1.856h-5.816v3.28h6.534v1.904h-9.047ZM47.586 11.84V.16h3.052l4.344 6.448c1.329 1.952 1.49 2.592 1.49 2.592h.054L56.49.16h2.513v11.68h-3.07L51.429 5.2c-1.023-1.504-1.293-2.416-1.293-2.416H50.1v9.056h-2.513ZM60.894 11.84V9.472h2.62v2.368h-2.62ZM65.402 11.84V.16h2.513v4.672h6.014V.16h2.513v11.68H73.93V6.688h-6.014v5.152h-2.513ZM77.517 11.84 82.543.16h2.729l5.098 11.68h-2.693l-1.059-2.688h-5.44L80.12 11.84h-2.603Zm4.38-4.544H85.9l-1.167-2.88c-.808-2.128-.826-2.512-.826-2.512h-.036s0 .384-.807 2.512l-1.167 2.88ZM91.44 11.84V.16h6.301c3.214 0 4.488 1.392 4.488 3.408 0 1.808-1.436 2.672-3.105 2.88v.048c1.077.24 1.561.768 2.01 1.808.575 1.312.664 2.88 1.4 3.44v.096h-2.872c-.61-.544-.754-2.256-1.077-3.296-.323-1.072-1.023-1.2-2.334-1.2h-2.297v4.496H91.44Zm2.514-6.352h3.518c1.472 0 2.154-.768 2.154-1.76 0-1.088-.844-1.712-2.154-1.712h-3.518v3.472ZM106.563 11.84 101.752.16h2.693s2.603 6.544 2.872 7.344c.431 1.28.628 1.936.628 1.936h.036c-.018 0 .18-.656.628-1.936.288-.8 2.783-7.344 2.783-7.344h2.603l-4.632 11.68h-2.8ZM115.024 11.84V.16h8.958v1.856h-6.445V4.8h5.817v1.856h-5.817v3.28h6.535v1.904h-9.048ZM130.311 12c-3.339 0-5.35-1.616-5.35-4.016h2.873c-.036 1.36.969 2.112 2.477 2.112 1.598 0 2.351-.56 2.351-1.392 0-.832-.646-1.184-2.944-1.744-2.1-.512-4.398-1.12-4.398-3.52 0-1.904 1.867-3.44 4.811-3.44 3.034 0 4.973 1.52 4.973 3.664h-2.783c-.018-1.136-.879-1.76-2.19-1.76-1.274 0-2.118.576-2.118 1.344 0 .912.7 1.2 2.531 1.664 2.711.672 4.901.944 4.901 3.552 0 2.096-2.136 3.536-5.134 3.536ZM139.537 11.84V2.064h-3.967V.16H146v1.904h-3.949v9.776h-2.514Z"/>
  </g>
</svg>
